<svg xmlns="http://www.w3.org/2000/svg" style="position: absolute; width: 0; height: 0; overflow: hidden;"><symbol id="arrow_left" viewBox="0 0 24 12"><title>arrow_left</title><path d="M23.5 5.523H1.707l4.146-4.147a.5.5 0 0 0-.707-.707L.147 5.668l-.109.163a.496.496 0 0 0 0 .382l.109.163 4.999 5a.5.5 0 1 0 .707-.706L1.707 6.523H23.5a.5.5 0 0 0 0-1z" fill="#003554" fill-rule="evenodd"/></symbol><symbol id="arrow_up" viewBox="0 0 12 25"><title>arrow_up</title><path d="M11.565 5.96l-4.999-5L6.403.85a.496.496 0 0 0-.382 0L5.858.96l-4.999 5a.5.5 0 0 0 .707.707L5.711 2.52v21.793a.5.5 0 0 0 1 0V2.52l4.146 4.146a.5.5 0 1 0 .708-.706z" fill="#003554" fill-rule="evenodd"/></symbol><symbol id="pencil" viewBox="0 0 24 24"><path d="M22.94 2.732l-1.672-1.671a2.502 2.502 0 0 0-3.535 0l-1.585 1.585-.001.001v.001l-1.5 1.499-12 12a.493.493 0 0 0-.115.19l-.01.016-2 6.5A.501.501 0 0 0 1 23.5l.147-.022 6.5-2 .016-.01a.493.493 0 0 0 .19-.115l12-12 3.086-3.085c.471-.471.73-1.098.73-1.768a2.485 2.485 0 0 0-.729-1.768zM19.5 8.293L15.707 4.5l.793-.793L20.293 7.5l-.793.793zM4.2 21.492l-1.692-1.691.726-2.36.413.413A.5.5 0 0 0 4 18h2v2a.5.5 0 0 0 .147.354l.413.413-2.36.725zM6.293 17H4.207l-.5-.5L15 5.207l1.543 1.543L6.293 17zm-4.118 3.882l.943.943-1.362.419.419-1.362zm5.325-.589l-.5-.5v-2.086l10.25-10.25L18.793 9 7.5 20.293zM22.232 5.561L21 6.793 17.207 3l1.232-1.232a1.503 1.503 0 0 1 2.121 0l1.672 1.671c.282.282.438.659.438 1.061 0 .403-.155.779-.438 1.061z"/></symbol></svg>