<svg width="364" height="136" xmlns="http://www.w3.org/2000/svg"><title>blitzart_logo</title><path d="M0 120.576c.98.6 2.444 1.152 4.384 1.664 1.94.512 4.104.768 6.496.768 4.948 0 8.788-1.452 11.52-4.352 2.732-2.896 4.096-7.144 4.096-12.736 0-5.544-1.036-9.64-3.104-12.288-2.068-2.644-5.172-3.968-9.312-3.968-1.792 0-3.444.34-4.96 1.024-1.516.684-2.764 1.644-3.744 2.88H5.12V77.632H0v42.944zM16.864 95.04a7.27 7.27 0 0 1 2.464 2.432c.64 1.024 1.108 2.264 1.408 3.712.296 1.452.448 3.008.448 4.672 0 4.352-.864 7.552-2.592 9.6-1.728 2.048-4.044 3.072-6.944 3.072-1.236 0-2.432-.116-3.584-.352-1.152-.232-2.136-.58-2.944-1.056v-16.128c.596-2.176 1.556-3.86 2.88-5.056 1.324-1.192 3.048-1.792 5.184-1.792 1.452 0 2.676.3 3.68.896zm24.672-17.408h-5.12v38.4c0 2.604.616 4.448 1.856 5.536 1.236 1.088 2.816 1.632 4.736 1.632.896 0 1.952-.104 3.168-.32 1.216-.212 2.164-.488 2.848-.832l-.576-4.032c-.812.3-1.536.492-2.176.58-.64.08-1.24.124-1.792.124-.94 0-1.664-.32-2.176-.956-.512-.644-.768-1.708-.768-3.204V77.632zm15.36 44.8h5.12v-32h-5.12v32zM56.8 83.136c.66.64 1.504.96 2.528.96s1.896-.32 2.624-.96c.724-.64 1.088-1.452 1.088-2.432s-.364-1.824-1.088-2.528c-.728-.704-1.6-1.056-2.624-1.056s-1.868.352-2.528 1.056c-.664.704-.992 1.548-.992 2.528s.328 1.792.992 2.432zm13.216 11.776h4.992V113.6c0 3.456.532 5.92 1.6 7.392 1.064 1.472 2.9 2.208 5.504 2.208 1.576 0 3.048-.172 4.416-.512a19.542 19.542 0 0 0 3.776-1.344l-1.152-3.904a29.24 29.24 0 0 1-2.56.928c-.768.236-1.708.352-2.816.352-1.324 0-2.264-.456-2.816-1.376-.556-.912-.832-2.484-.832-4.704V94.912h8.704v-4.48h-8.704v-7.808l-5.12 1.472v6.336h-4.992v4.48zm24.956 27.52h22.784v-4.48h-17.472l2.616-2.496 14.856-20.544v-4.48H94.972v4.48h17.472l-2.688 2.688-14.784 20.352v4.48zm33.216-25.728c.6-.352 1.292-.668 2.08-.952a20.364 20.364 0 0 1 2.496-.724 28.66 28.66 0 0 1 2.56-.464 18.242 18.242 0 0 1 2.336-.164c2.476 0 4.184.472 5.12 1.408.94.94 1.408 2.584 1.408 4.928 0 1.028-.064 2.176-.192 3.456a12.622 12.622 0 0 0-1.76-.128h-1.76c-2.344 0-4.488.16-6.432.48-1.94.32-3.604.856-4.992 1.6-1.384.748-2.464 1.748-3.232 3.008-.768 1.26-1.152 2.828-1.152 4.704 0 1.408.248 2.668.736 3.776a8.526 8.526 0 0 0 2.016 2.848c.856.792 1.868 1.4 3.04 1.824 1.176.424 2.444.64 3.808.64 1.368 0 2.584-.148 3.648-.448 1.068-.296 2.008-.672 2.816-1.12a9.082 9.082 0 0 0 2.08-1.536 10.706 10.706 0 0 0 1.44-1.76h.32l1.344 4.48h3.776a21.263 21.263 0 0 1-.704-3.904 49.48 49.48 0 0 1-.192-4.48c0-2.176.064-4.48.192-6.912.128-2.432.192-4.928.192-7.488 0-1.152-.116-2.304-.352-3.456a7.962 7.962 0 0 0-1.408-3.168c-.704-.96-1.728-1.736-3.072-2.336-1.344-.596-3.124-.896-5.344-.896-2.344 0-4.596.236-6.752.704-2.152.472-4.04 1.196-5.664 2.176l1.6 3.904zm3.392 20.32c-1.064-.96-1.6-2.184-1.6-3.68 0-1.064.288-1.952.864-2.656.576-.704 1.344-1.256 2.304-1.664.96-.404 2.072-.684 3.328-.832a33.184 33.184 0 0 1 3.872-.224c.6 0 1.208.012 1.824.032.62.024 1.228.056 1.824.096v5.312c-.212.556-.544 1.132-.992 1.728a7.597 7.597 0 0 1-1.696 1.632c-.68.496-1.492.896-2.432 1.216-.936.32-2.004.48-3.2.48-1.664 0-3.028-.48-4.096-1.44zm44.736-26.592c-1.536-.428-2.924-.64-4.16-.64-1.748 0-3.188.396-4.32 1.184-1.132.792-2.1 1.908-2.912 3.36h-.256l-.96-3.904h-3.584v32h5.12v-22.4c.256-1.536.916-2.804 1.984-3.808s2.516-1.504 4.352-1.504c1.152 0 2.368.216 3.648.64l1.088-4.928zm4.544 4.48h4.992V113.6c0 3.456.532 5.92 1.6 7.392 1.068 1.472 2.9 2.208 5.504 2.208 1.576 0 3.052-.172 4.412-.512a19.487 19.487 0 0 0 3.78-1.344l-1.152-3.904c-.94.384-1.796.696-2.56.928-.768.236-1.708.352-2.816.352-1.324 0-2.26-.456-2.816-1.376-.556-.912-.832-2.484-.832-4.704V94.912h8.704v-4.48h-8.704v-7.808l-5.12 1.472v6.336h-4.992v4.48zm52.992-3.328c-1.368-.512-3.128-.96-5.28-1.344-2.156-.384-4.6-.576-7.328-.576-5.212 0-9.176 1.472-11.904 4.416-2.732 2.944-4.096 7.276-4.096 12.992 0 5.464 1.012 9.472 3.04 12.032 2.024 2.56 5.108 3.84 9.248 3.84 3.796 0 6.44-1 7.936-3.008h.256v2.048c0 2.26-.528 4.02-1.568 5.28-1.048 1.26-3.02 1.888-5.92 1.888-1.92 0-3.536-.192-4.832-.576a43.66 43.66 0 0 1-3.424-1.148l-1.728 6.588c.896.468 2.228.916 4 1.344 1.768.428 4.192.64 7.264.64 4.52 0 8.04-1.1 10.56-3.296 2.516-2.2 3.776-5.62 3.776-10.272V91.584zm-18.496 22.272c-1.024-1.62-1.536-3.988-1.536-7.104 0-3.492.596-6.048 1.792-7.648 1.192-1.6 2.856-2.4 4.992-2.4 1.96 0 3.608.28 4.928.832v14.4c-.472 1.452-1.144 2.54-2.016 3.264-.876.732-2.124 1.088-3.744 1.088-1.92 0-3.392-.808-4.416-2.432zm45.76-23.424c-1.408-.468-2.668-.704-3.776-.704-1.664 0-3.116.428-4.352 1.28-1.24.856-2.22 2.072-2.94 3.648h-.26l-.96-4.224h-6.464v32h8.32v-20.668a5.698 5.698 0 0 1 2.016-3.044c.996-.788 2.248-1.184 3.744-1.184 1.064 0 2.256.236 3.584.704l1.088-7.808zm6.784 8.064c1.192-.552 2.72-1 4.576-1.344 1.856-.34 3.616-.512 5.28-.512 2.216 0 3.648.524 4.288 1.568.64 1.052.808 2.764.512 5.152-2.816-.128-5.368-.032-7.648.288-2.284.32-4.248.896-5.888 1.728-1.644.832-2.904 1.92-3.776 3.264-.88 1.344-1.312 3-1.312 4.96 0 1.408.232 2.68.704 3.808a8.675 8.675 0 0 0 1.984 2.944c.852.832 1.876 1.472 3.072 1.92 1.192.448 2.536.672 4.032.672 2.388 0 4.34-.48 5.856-1.44 1.512-.96 2.696-2.1 3.552-3.424h.32l1.344 4.416h6.784a20.125 20.125 0 0 1-.96-4.896 61.33 61.33 0 0 1-.16-5.34 99.68 99.68 0 0 1 .224-5.604c.128-1.892.192-3.784.192-5.664 0-1.704-.184-3.24-.544-4.608-.364-1.364-.984-2.536-1.856-3.52-.876-.98-2.06-1.74-3.552-2.268-1.496-.536-3.352-.804-5.568-.804-2.56 0-5.016.224-7.36.672-2.348.448-4.376 1.056-6.08 1.824l1.984 6.208zm5.664 16.608c-.704-.66-1.056-1.588-1.056-2.784 0-.852.276-1.556.832-2.112.552-.552 1.3-.98 2.24-1.276.936-.3 2.016-.496 3.232-.58a23.035 23.035 0 0 1 3.808.064v4.16c-.472.856-1.196 1.652-2.176 2.4-.984.748-2.304 1.12-3.968 1.12-1.24 0-2.208-.328-2.912-.992zm35.424-24.672c0-1.024.064-1.94.192-2.752.128-.808.404-1.48.832-2.016.424-.532 1.02-.936 1.792-1.216.768-.276 1.768-.416 3.008-.416 1.92 0 3.668.184 5.248.544 1.576.364 2.92.844 4.032 1.44l2.176-6.464c-1.408-.808-3.256-1.44-5.536-1.888-2.284-.448-4.896-.672-7.84-.672-3.968 0-7 .928-9.088 2.784-2.092 1.856-3.136 4.812-3.136 8.864v1.792h-4.416v7.04h4.416v24.96h8.32v-24.96h9.664v24.96h8.32v-32h-17.984zm45.18 32h9.532l-8.636-14.912-3.52-2.496 3.264-2.428 7.68-12.164h-9.152l-7.296 12.736-1.92.896V77.632h-8.32v44.8h8.32v-13.248h2.24l7.808 13.248zM257.2 24.122a17.09 17.09 0 0 1 1.164 5.25c.388 6.056-2.152 12.976-7.712 19.308-5.56 6.328-20.564 16.596-28.24 18.836 1.556 6.91 1.24 9.988-.162 10.761 1.473 4.151 3.064 5.226 8.114 8.679-3.596.98-5.624-1.516-7.908-1.516-3.268-.328-5.16 2.168-8.424 1.516 4.611-2.98 7.423-3.937 7.492-8.48-4.237.237-14.332-12.084-18.524-14.072-6.152-2.916-17.12-9.74-29.628-12.556-12.504-2.804-21.324-4.968-12.74-5.296 9.7-.375 23.334-6.124 37.09-12.647-.24-.325-.518-.577-.842-.685-1.964-1.468-6.372.98-8.824 0-5.88-2.94-1.468-7.84-5.88-10.292 7.564 2.6 15.24 2.92 22.918 3.05-1.478-.906-2.724-2.012-3.846-3.338-.428-.24.82-3.472-.22-4.616-.992-2.24-6.044-2.256-7.704-4.308-3.692-5.436 2.548-7.56-.104-11.852 8.189 9.158 19.243 13.753 29.109 20.198 11.81-5.446 21.618-9.045 26.167-6.882a19.229 19.229 0 0 1 3.472 2.103c.913-4.55 2.755-9.27 3.876-13.751.652 3.92-.328 10.128 1.632 13.396 3.268 5.552 14.7 2.284 21.236 4.9-5.344.22-15.235 3.226-21.512 2.294zm-7.912-3.618l-4.132-.984c7.116-1.664 9.688 8.688 2.724 9.716-9.092 1.528-5.628-14.436 1.408-8.732zm-3.06 5.216c2.9 0 2.904-4.5 0-4.5-2.892 0-2.896 4.5 0 4.5z" fill="#003554" fill-rule="evenodd"/></svg>