<?xml version="1.0" encoding="UTF-8"?>
<svg width="24px" height="12px" viewBox="0 0 24 12" version="1.1" xmlns="http://www.w3.org/2000/svg" xmlns:xlink="http://www.w3.org/1999/xlink">
    <!-- Generator: Sketch 52.5 (67469) - http://www.bohemiancoding.com/sketch -->
    <title>arrow_left</title>
    <desc>Created with Sketch.</desc>
    <g id="Design" stroke="none" stroke-width="1" fill="none" fill-rule="evenodd">
        <g id="Work-Detail" transform="translate(-180.000000, -218.000000)" fill="#003554">
            <g id="Group-2" transform="translate(180.000000, 213.827935)">
                <g id="arrow_left" transform="translate(0.000000, 4.694757)">
                    <path d="M23.5,5 L1.707,5 L5.853,0.853 C6.048,0.658 6.048,0.341 5.853,0.146 C5.658,-0.049 5.341,-0.049 5.146,0.146 L0.147,5.145 L0.038,5.308 C-0.013,5.43 -0.013,5.568 0.038,5.69 L0.147,5.853 L5.146,10.853 C5.244,10.951 5.372,11 5.5,11 C5.628,11 5.756,10.951 5.853,10.854 C6.048,10.659 6.048,10.342 5.853,10.147 L1.707,6 L23.5,6 C23.776,6 24,5.776 24,5.5 C24,5.224 23.776,5 23.5,5 Z" id="Path"></path>
                </g>
            </g>
        </g>
    </g>
</svg>