<?xml version="1.0" encoding="UTF-8"?>
<svg version="1.1" viewBox="0 0 24 24" xmlns="http://www.w3.org/2000/svg" xmlns:xlink="http://www.w3.org/1999/xlink">
    <!--Generated by IJSVG (https://github.com/iconjar/IJSVG)-->
    <path d="M22.94,2.732l-1.672,-1.671c-0.975,-0.975 -2.561,-0.975 -3.535,0l-1.585,1.585l-0.001,0.001v0.001l-1.5,1.499l-12,12c-0.055,0.055 -0.091,0.121 -0.115,0.19l-0.01,0.016l-2,6.5c-0.054,0.177 -0.006,0.37 0.124,0.5c0.096,0.096 0.223,0.147 0.354,0.147l0.147,-0.022l6.5,-2l0.016,-0.01c0.069,-0.024 0.135,-0.06 0.19,-0.115l12,-12l3.086,-3.085c0.471,-0.471 0.73,-1.098 0.73,-1.768c0.001,-0.668 -0.259,-1.296 -0.729,-1.768Zm-3.44,5.561l-3.793,-3.793l0.793,-0.793l3.793,3.793l-0.793,0.793Zm-15.3,13.199l-1.692,-1.691l0.726,-2.36l0.413,0.413c0.093,0.093 0.22,0.146 0.353,0.146h2v2c0,0.133 0.053,0.26 0.147,0.354l0.413,0.413l-2.36,0.725Zm2.093,-4.492h-2.086l-0.5,-0.5l11.293,-11.293l1.543,1.543l-10.25,10.25Zm-4.118,3.882l0.943,0.943l-1.362,0.419l0.419,-1.362Zm5.325,-0.589l-0.5,-0.5v-2.086l10.25,-10.25l1.543,1.543l-11.293,11.293Zm14.732,-14.732l-1.232,1.232l-3.793,-3.793l1.232,-1.232c0.585,-0.584 1.536,-0.584 2.121,0l1.672,1.671c0.282,0.282 0.438,0.659 0.438,1.061c0,0.403 -0.155,0.779 -0.438,1.061Z" fill="#000"></path>
</svg>