<svg xmlns="http://www.w3.org/2000/svg" style="position: absolute; width: 0; height: 0; overflow: hidden;"><symbol id="arrow_left" viewBox="0 0 24 12"><title>arrow_left</title><path d="M23.5 5.523H1.707l4.146-4.147a.5.5 0 0 0-.707-.707L.147 5.668l-.109.163a.496.496 0 0 0 0 .382l.109.163 4.999 5a.5.5 0 1 0 .707-.706L1.707 6.523H23.5a.5.5 0 0 0 0-1z" fill="#003554" fill-rule="evenodd"/></symbol><symbol id="arrow_up" viewBox="0 0 12 25"><title>arrow_up</title><path d="M11.565 5.96l-4.999-5L6.403.85a.496.496 0 0 0-.382 0L5.858.96l-4.999 5a.5.5 0 0 0 .707.707L5.711 2.52v21.793a.5.5 0 0 0 1 0V2.52l4.146 4.146a.5.5 0 1 0 .708-.706z" fill="#003554" fill-rule="evenodd"/></symbol></svg>